# xmcd CD database file
#
# Track frame offsets:
#	150
#	36457
#	66467
#	93418
#	129209
#	162284
#	173159
#	196584
#	210572
#	242677
#
# Disc length: 3741 seconds
#
# Revision: 0
# Processed by: cddbd v1.5.2PL0 Copyright (c) Steve Scherf et al.
# Submitted via: CDex 1.70beta2
#
DISCID=840e9b0a
DTITLE=Joe Morris - Mat Maneri - Soul Search
DYEAR=2000
DGENRE=Jazz
TTITLE0=Slight of Hand
TTITLE1=Adhesive
TTITLE2=Eyes or Gaze
TTITLE3=Natural Number
TTITLE4=Versicolor
TTITLE5=Soul Search
TTITLE6=Flyer
TTITLE7=Micron
TTITLE8=Forwards and Sideways
TTITLE9=Pluralize
EXTD=YEAR: 2000
EXTT0=
EXTT1=
EXTT2=
EXTT3=
EXTT4=
EXTT5=
EXTT6=
EXTT7=
EXTT8=
EXTT9=
PLAYORDER=
